@startuml

skinparam componentStyle uml2

package "'ImmigrationAuhtorityValueSpace' Aggregate" <<Rectangle>> {
	class SimplyGoValueProposition3 <<(E,DarkSeaGreen) Entity>> {
		String regulationsDistribution
		String seamlessTravelerDataDistribution
		String seamlessImmigration
		String populationProtection
		String publicOrder
		ImmigrationAuthorityValueExpectation inspiration
		ImmigrationAuthorityValueExpectation proposeSolutions()
	}
	class ImmigrationAuthorityValueExpectation <<(A,#fffab8) Aggregate Root>> {
		String populationProtection
		String publicOrder
		SimplyGoValueProposition3 valueProposition
		ImmigrationAuthorityContext regulatoryNeeds
		SimplyGoValueProposition3 openSolutionSpace()
		ImmigrationAuthorityEngagementDesign dictate()
	}
}
SimplyGoValueProposition3 --> ImmigrationAuthorityValueExpectation : inspiration
ImmigrationAuthorityValueExpectation --> SimplyGoValueProposition3 : valueProposition


@enduml
